<svg width="76" height="47" viewBox="0 0 76 47" fill="none" xmlns="http://www.w3.org/2000/svg">
<g filter="url(#filter0_d)">
<path d="M67.5312 31.2949C67.5312 30.7324 67.6953 30.2637 68.0234 29.8887C68.3633 29.5137 68.8672 29.3262 69.5352 29.3262C70.2031 29.3262 70.707 29.5137 71.0469 29.8887C71.3984 30.2637 71.5742 30.7324 71.5742 31.2949C71.5742 31.834 71.3984 32.2852 71.0469 32.6484C70.707 33.0117 70.2031 33.1934 69.5352 33.1934C68.8672 33.1934 68.3633 33.0117 68.0234 32.6484C67.6953 32.2852 67.5312 31.834 67.5312 31.2949Z" fill="#E43F5A"/>
<circle cx="18" cy="25" r="14" fill="#E43F5A"/>
<path d="M43.112 24.72V31.512C43.112 31.96 43.312 32.272 43.712 32.448C43.424 32.96 43.008 33.216 42.464 33.216C41.568 33.216 41.12 32.656 41.12 31.536V24.864C41.12 23.184 40.384 22.344 38.912 22.344C38.112 22.344 37.352 22.672 36.632 23.328C35.912 23.984 35.416 24.864 35.144 25.968V31.512C35.144 31.96 35.352 32.272 35.768 32.448C35.432 32.96 35.008 33.216 34.496 33.216C33.616 33.216 33.176 32.656 33.176 31.536V24.864C33.176 23.184 32.44 22.344 30.968 22.344C30.168 22.344 29.408 22.664 28.688 23.304C27.968 23.944 27.472 24.8 27.2 25.872V31.512C27.2 31.976 27.4 32.288 27.8 32.448C27.464 32.96 27.048 33.216 26.552 33.216C25.656 33.216 25.208 32.656 25.208 31.536V22.32C25.208 21.856 25.008 21.536 24.608 21.36C24.912 20.848 25.328 20.592 25.856 20.592C26.752 20.592 27.2 21.152 27.2 22.272V23.52C27.616 22.656 28.208 21.952 28.976 21.408C29.744 20.864 30.608 20.592 31.568 20.592C32.528 20.592 33.312 20.856 33.92 21.384C34.544 21.912 34.928 22.704 35.072 23.76C35.44 22.848 36.024 22.096 36.824 21.504C37.624 20.896 38.544 20.592 39.584 20.592C40.64 20.592 41.488 20.944 42.128 21.648C42.784 22.336 43.112 23.36 43.112 24.72ZM65.3776 24.72V31.512C65.3776 31.96 65.5776 32.272 65.9776 32.448C65.6896 32.96 65.2736 33.216 64.7296 33.216C63.8336 33.216 63.3856 32.656 63.3856 31.536V24.864C63.3856 23.184 62.6496 22.344 61.1776 22.344C60.3776 22.344 59.6176 22.672 58.8976 23.328C58.1776 23.984 57.6816 24.864 57.4096 25.968V31.512C57.4096 31.96 57.6176 32.272 58.0336 32.448C57.6976 32.96 57.2736 33.216 56.7616 33.216C55.8816 33.216 55.4416 32.656 55.4416 31.536V24.864C55.4416 23.184 54.7056 22.344 53.2336 22.344C52.4336 22.344 51.6736 22.664 50.9536 23.304C50.2336 23.944 49.7376 24.8 49.4656 25.872V31.512C49.4656 31.976 49.6656 32.288 50.0656 32.448C49.7296 32.96 49.3136 33.216 48.8176 33.216C47.9216 33.216 47.4736 32.656 47.4736 31.536V22.32C47.4736 21.856 47.2736 21.536 46.8736 21.36C47.1776 20.848 47.5936 20.592 48.1216 20.592C49.0176 20.592 49.4656 21.152 49.4656 22.272V23.52C49.8816 22.656 50.4736 21.952 51.2416 21.408C52.0096 20.864 52.8736 20.592 53.8336 20.592C54.7936 20.592 55.5776 20.856 56.1856 21.384C56.8096 21.912 57.1936 22.704 57.3376 23.76C57.7056 22.848 58.2896 22.096 59.0896 21.504C59.8896 20.896 60.8096 20.592 61.8496 20.592C62.9056 20.592 63.7536 20.944 64.3936 21.648C65.0496 22.336 65.3776 23.36 65.3776 24.72Z" fill="white"/>
<path d="M16.336 31.392H21.184C22.096 31.392 22.776 31.056 23.224 30.384C23.432 30.464 23.6 30.608 23.728 30.816C23.856 31.008 23.92 31.208 23.92 31.416C23.92 32.472 23.04 33 21.28 33H16.24C15.008 33 14.096 32.752 13.504 32.256C12.912 31.76 12.616 30.952 12.616 29.832V17.616C12.616 17.136 12.416 16.816 12.016 16.656C12.4 16.08 13.04 15.792 13.936 15.792H21.52C23.12 15.792 23.92 16.208 23.92 17.04C23.92 17.536 23.688 17.864 23.224 18.024C22.776 17.624 22.096 17.424 21.184 17.424H14.632V23.28H19.696C20.576 23.28 21.2 23.352 21.568 23.496C21.936 23.64 22.12 23.92 22.12 24.336C22.12 24.752 21.928 25.056 21.544 25.248C21.112 25.024 20.432 24.912 19.504 24.912H14.632V29.76C14.632 30.336 14.76 30.752 15.016 31.008C15.288 31.264 15.728 31.392 16.336 31.392Z" fill="#333333"/>
</g>
<defs>
<filter id="filter0_d" x="0" y="11" width="75.5742" height="36" filterUnits="userSpaceOnUse" color-interpolation-filters="sRGB">
<feFlood flood-opacity="0" result="BackgroundImageFix"/>
<feColorMatrix in="SourceAlpha" type="matrix" values="0 0 0 0 0 0 0 0 0 0 0 0 0 0 0 0 0 0 127 0"/>
<feOffset dy="4"/>
<feGaussianBlur stdDeviation="2"/>
<feColorMatrix type="matrix" values="0 0 0 0 0 0 0 0 0 0 0 0 0 0 0 0 0 0 0.25 0"/>
<feBlend mode="normal" in2="BackgroundImageFix" result="effect1_dropShadow"/>
<feBlend mode="normal" in="SourceGraphic" in2="effect1_dropShadow" result="shape"/>
</filter>
</defs>
</svg>
